<svg xmlns="http://www.w3.org/2000/svg" viewBox="0 0 236.18 211.92">
    <g>
        <g>
            <path d="M112.34 211.21c-3.33 0-6.67-.06-10 0-2.94.07-3.56-.81-2-3.49q12.93-21.94 25.68-44c5.84-10.09 11.48-20.29 17.36-30.35 2-3.38.58-4.55-2.58-4.92-4.07-.47-7.59.33-9.84 4.26q-9.19 16-18.5 32Q99.8 186.51 87 208.27c-1.62 2.77-4 3.13-6.88 2.64-9.25-1.58-14.84-7.78-19.25-15.33-8.48-14.52-16.84-29.1-25.23-43.67Q19.74 124.22 3.83 96.5c-6.91-12-3.64-23.1 3.32-33.74 2.7-4.13 4.09-.6 5.21 1.31 6 10.2 11.74 20.51 17.64 30.75Q52.56 134 75.16 173.13c2 3.52 3.23 3.35 5.22-.13 12-21 24.2-41.77 36.1-62.78 2.08-3.67 4.35-5.17 8.6-5.12 18.66.21 37.32.07 56 .11 5.07 0 5.55.73 3 5.08q-18.17 31.62-36.48 63.15c-5.92 10.23-12.16 20.3-17.65 30.76-2.89 5.52-6.5 8-12.64 7a31.43 31.43 0 0 0-4.97.01z" fill="#fff"></path>
            <path d="M118.11.12c19 0 38 .34 57-.11 14.67-.35 23.1 8.94 28.89 19.48 1.19 2.18.69 3.53-1.93 3.69-1.66.1-3.33.09-5 .09-28 0-56-.09-83.93 0-12.63.05-25.25.49-37.87.78-4.57.11-5.08 1-2.79 5 11.91 20.61 23.78 41.24 35.86 61.75 2 3.44 2.21 6.07.12 9.59-9.46 15.88-18.66 31.93-27.91 47.93-3 5.13-3.49 5.27-6.54.06-10.95-18.67-21.74-37.43-32.6-56.15-7.85-13.54-15.67-27.09-23.62-40.56-1.42-2.41-1.77-4.55-.36-7 3.17-5.48 6.25-11 9.42-16.48 1.64-2.84 3.12-3 4.91.09q20.39 35.53 41 70.93c1.27 2.18 1.38 6.2 5.17 5.59 2.69-.43 5.53-9.06 4.1-11.75-2.34-4.41-4.93-8.69-7.43-13C62.41 59 50.3 38 38 17c-1.88-3.2-1.41-5.39.79-8C44.12 2.63 51.09.16 59.12.15h59z" fill="#fff"></path>
            <path d="M151.3 35.07c18.66 0 37.32.08 56-.07 4 0 6.56 1.13 8.38 4.78 2.37 4.76 5 9.39 7.87 13.9 2.49 4 1 4.56-2.91 4.54-26-.12-52-.07-78-.08a8.92 8.92 0 0 0-2.49 0c-2.69.82-7-2.28-8 2.2-.75 3.35 5.42 8.82 9.1 8.8 26.81-.17 53.61 1.46 80.43.86 1.33 0 2.67 0 4-.16 6.83-.57 9.53 1.62 10.28 8.69a30.21 30.21 0 0 1-4 18.74q-28.67 49.49-57.37 99a31 31 0 0 1-32.74 15.15c-3.38-.61-1.88-2.38-1-3.93q7.06-12.36 14.2-24.68 24-41.24 48-82.47c.42-.72.7-1.52 1.13-2.23 2.22-3.64 1.12-5-3-5-19.49.08-39 0-58.48 0-3.33 0-6.72-.37-10 .08-6.67.92-10.53-1.7-13.77-7.66-8.35-15.35-17.46-30.29-26.19-45.43-2.91-5-2.79-5.08 3.11-5.07q27.71.07 55.45.04z" fill="#fff"></path>
        </g>
    </g>
</svg>